<svg width="70" height="70" viewBox="0 0 70 70" fill="none" xmlns="http://www.w3.org/2000/svg">
<path d="M67.2561 57.7692L61.5183 59.1258C60.2316 59.4388 59.2231 60.4128 58.9449 61.6998L57.7278 66.813C57.0671 69.5956 53.5201 70.4652 51.677 68.2739L41.2794 56.3083C40.4448 55.3344 40.8968 53.8039 42.1487 53.4908C48.3039 51.9951 53.8331 48.5516 57.9017 43.6471C58.5624 42.847 59.7448 42.7427 60.475 43.4731L68.195 51.1951C70.8379 53.8387 69.899 57.1431 67.2561 57.7692Z" fill="#C69E0E"/>
<path d="M67.2561 57.7692L61.5183 59.1258C60.2316 59.4388 59.2231 60.4128 58.9449 61.6998L57.7278 66.813C57.0671 69.5956 53.5201 70.4652 51.677 68.2739L41.2794 56.3083C40.4448 55.3344 40.8968 53.8039 42.1487 53.4908C48.3039 51.9951 53.8331 48.5516 57.9017 43.6471C58.5624 42.847 59.7448 42.7427 60.475 43.4731L68.195 51.1951C70.8379 53.8387 69.899 57.1431 67.2561 57.7692Z" fill="url(#paint0_linear_470_506)"/>
<path d="M2.74386 57.7692L8.4817 59.1258C9.76837 59.4388 10.7768 60.4128 11.055 61.6998L12.2722 66.813C12.9329 69.5956 16.4799 70.4652 18.323 68.2739L28.7207 56.3083C29.5553 55.3344 29.1032 53.8039 27.8513 53.4908C21.6961 51.9951 16.1669 48.5516 12.0983 43.6471C11.4376 42.847 10.2552 42.7427 9.52495 43.4731L1.80495 51.1951C-0.837937 53.8387 0.100982 57.1431 2.74386 57.7692Z" fill="#C69E0E"/>
<path d="M2.74386 57.7692L8.4817 59.1258C9.76837 59.4388 10.7768 60.4128 11.055 61.6998L12.2722 66.813C12.9329 69.5956 16.4799 70.4652 18.323 68.2739L28.7207 56.3083C29.5553 55.3344 29.1032 53.8039 27.8513 53.4908C21.6961 51.9951 16.1669 48.5516 12.0983 43.6471C11.4376 42.847 10.2552 42.7427 9.52495 43.4731L1.80495 51.1951C-0.837937 53.8387 0.100982 57.1431 2.74386 57.7692Z" fill="url(#paint1_linear_470_506)"/>
<path d="M35.0865 0.47998C21.6286 0.47998 10.7441 11.3673 10.7441 24.8285C10.7441 29.8721 12.2395 34.4984 14.8128 38.3593C18.5685 43.9247 24.515 47.8553 31.4351 48.864C32.6175 49.0727 33.8346 49.177 35.0865 49.177C36.3384 49.177 37.5555 49.0727 38.7378 48.864C45.658 47.8553 51.6045 43.9247 55.3602 38.3593C57.9335 34.4984 59.4288 29.8721 59.4288 24.8285C59.4288 11.3673 48.5443 0.47998 35.0865 0.47998ZM45.7276 24.0633L42.8413 26.9503C42.3544 27.4373 42.0762 28.3764 42.2501 29.0721L43.0847 32.6548C43.7454 35.4723 42.2501 36.5854 39.7463 35.0897L36.2688 33.0374C35.6429 32.6548 34.5996 32.6548 33.9737 33.0374L30.4962 35.0897C27.9924 36.5506 26.4971 35.4723 27.1578 32.6548L27.9924 29.0721C28.1315 28.4112 27.8881 27.4373 27.4013 26.9503L24.4454 24.0633C22.7414 22.3589 23.2978 20.6545 25.6625 20.2719L29.3834 19.6458C30.0094 19.5414 30.7396 18.9849 31.0178 18.4283L33.0695 14.3239C34.1823 12.0977 35.9906 12.0977 37.1034 14.3239L39.1551 18.4283C39.4333 18.9849 40.1636 19.5414 40.8243 19.6458L44.5452 20.2719C46.8751 20.6545 47.4315 22.3589 45.7276 24.0633Z" fill="#C69E0E"/>
<path d="M35.0865 0.47998C21.6286 0.47998 10.7441 11.3673 10.7441 24.8285C10.7441 29.8721 12.2395 34.4984 14.8128 38.3593C18.5685 43.9247 24.515 47.8553 31.4351 48.864C32.6175 49.0727 33.8346 49.177 35.0865 49.177C36.3384 49.177 37.5555 49.0727 38.7378 48.864C45.658 47.8553 51.6045 43.9247 55.3602 38.3593C57.9335 34.4984 59.4288 29.8721 59.4288 24.8285C59.4288 11.3673 48.5443 0.47998 35.0865 0.47998ZM45.7276 24.0633L42.8413 26.9503C42.3544 27.4373 42.0762 28.3764 42.2501 29.0721L43.0847 32.6548C43.7454 35.4723 42.2501 36.5854 39.7463 35.0897L36.2688 33.0374C35.6429 32.6548 34.5996 32.6548 33.9737 33.0374L30.4962 35.0897C27.9924 36.5506 26.4971 35.4723 27.1578 32.6548L27.9924 29.0721C28.1315 28.4112 27.8881 27.4373 27.4013 26.9503L24.4454 24.0633C22.7414 22.3589 23.2978 20.6545 25.6625 20.2719L29.3834 19.6458C30.0094 19.5414 30.7396 18.9849 31.0178 18.4283L33.0695 14.3239C34.1823 12.0977 35.9906 12.0977 37.1034 14.3239L39.1551 18.4283C39.4333 18.9849 40.1636 19.5414 40.8243 19.6458L44.5452 20.2719C46.8751 20.6545 47.4315 22.3589 45.7276 24.0633Z" fill="url(#paint2_linear_470_506)"/>
<defs>
<linearGradient id="paint0_linear_470_506" x1="43.8063" y1="71.0429" x2="57.0019" y2="57.5169" gradientUnits="userSpaceOnUse">
<stop stop-color="#D9B748" stop-opacity="0.22"/>
<stop offset="0.208438" stop-color="#D9B748" stop-opacity="0"/>
<stop offset="0.413142" stop-color="#D9B748" stop-opacity="0.95"/>
<stop offset="0.6728" stop-color="#D9B748" stop-opacity="0"/>
<stop offset="1" stop-color="#D9B748" stop-opacity="0"/>
</linearGradient>
<linearGradient id="paint1_linear_470_506" x1="3.18232" y1="71.0429" x2="16.3779" y2="57.5168" gradientUnits="userSpaceOnUse">
<stop stop-color="#D9B748" stop-opacity="0.22"/>
<stop offset="0.208438" stop-color="#D9B748" stop-opacity="0"/>
<stop offset="0.413142" stop-color="#D9B748" stop-opacity="0.95"/>
<stop offset="0.6728" stop-color="#D9B748" stop-opacity="0"/>
<stop offset="1" stop-color="#D9B748" stop-opacity="0"/>
</linearGradient>
<linearGradient id="paint2_linear_470_506" x1="15.7136" y1="51.9923" x2="39.898" y2="29.2538" gradientUnits="userSpaceOnUse">
<stop stop-color="#D9B748" stop-opacity="0.22"/>
<stop offset="0.208438" stop-color="#D9B748" stop-opacity="0"/>
<stop offset="0.413142" stop-color="#D9B748" stop-opacity="0.95"/>
<stop offset="0.6728" stop-color="#D9B748" stop-opacity="0"/>
<stop offset="1" stop-color="#D9B748" stop-opacity="0"/>
</linearGradient>
</defs>
</svg>
