<svg width="70" height="59" viewBox="0 0 70 59" fill="none" xmlns="http://www.w3.org/2000/svg">
<path d="M28.3139 2.50187C32.3762 -0.154993 37.6256 -0.154895 41.688 2.50201L68.1075 19.7815C68.7922 20.2293 69.2072 20.9898 69.2141 21.8079C69.2204 22.626 68.8177 23.3932 68.1402 23.8518L41.8506 41.6526C37.7135 44.454 32.2883 44.454 28.1512 41.6531L5.67361 26.434V41.8721C5.67361 43.222 4.57945 44.3166 3.22975 44.3166C1.88006 44.3166 0.785889 43.222 0.785889 41.8721V22.3163C0.785889 22.2335 0.789995 22.1517 0.79801 22.0711C0.789359 21.9842 0.785263 21.8964 0.785987 21.8079C0.792487 20.9898 1.2078 20.2292 1.89237 19.7815L28.3139 2.50187Z" fill="#C69E0E"/>
<path d="M28.3139 2.50187C32.3762 -0.154993 37.6256 -0.154895 41.688 2.50201L68.1075 19.7815C68.7922 20.2293 69.2072 20.9898 69.2141 21.8079C69.2204 22.626 68.8177 23.3932 68.1402 23.8518L41.8506 41.6526C37.7135 44.454 32.2883 44.454 28.1512 41.6531L5.67361 26.434V41.8721C5.67361 43.222 4.57945 44.3166 3.22975 44.3166C1.88006 44.3166 0.785889 43.222 0.785889 41.8721V22.3163C0.785889 22.2335 0.789995 22.1517 0.79801 22.0711C0.789359 21.9842 0.785263 21.8964 0.785987 21.8079C0.792487 20.9898 1.2078 20.2292 1.89237 19.7815L28.3139 2.50187Z" fill="url(#paint0_linear_470_511)"/>
<path d="M10.561 46.7603V35.6462L25.411 45.7008C31.203 49.6223 38.7984 49.6223 44.5903 45.7004L59.4383 35.6467V46.7603C59.4383 47.3406 59.232 47.9014 58.8567 48.3433C58.8567 48.3433 58.8567 48.3433 56.9944 46.7603L58.8567 48.3433L58.8498 48.3512L58.8405 48.3624L58.8117 48.3956L58.7174 48.5022C58.6382 48.5902 58.5263 48.7124 58.3826 48.864C58.0952 49.1666 57.6792 49.5866 57.1401 50.0843C56.0638 51.0782 54.487 52.3919 52.4542 53.7036C48.3945 56.3236 42.4405 58.9827 35.0002 58.9827C27.5597 58.9827 21.6055 56.3236 17.5455 53.7036C15.5129 52.3919 13.9361 51.0782 12.8595 50.0843C12.3205 49.5866 11.9044 49.1666 11.6169 48.864C11.4731 48.7129 11.3613 48.5907 11.2821 48.5022L11.1878 48.3956L11.1591 48.3624L11.1495 48.3512L11.1458 48.3468L13.0049 46.7603C11.1429 48.3438 11.1458 48.3468 11.1458 48.3468C10.7702 47.9048 10.561 47.3406 10.561 46.7603Z" fill="#C69E0E"/>
<path d="M10.561 46.7603V35.6462L25.411 45.7008C31.203 49.6223 38.7984 49.6223 44.5903 45.7004L59.4383 35.6467V46.7603C59.4383 47.3406 59.232 47.9014 58.8567 48.3433C58.8567 48.3433 58.8567 48.3433 56.9944 46.7603L58.8567 48.3433L58.8498 48.3512L58.8405 48.3624L58.8117 48.3956L58.7174 48.5022C58.6382 48.5902 58.5263 48.7124 58.3826 48.864C58.0952 49.1666 57.6792 49.5866 57.1401 50.0843C56.0638 51.0782 54.487 52.3919 52.4542 53.7036C48.3945 56.3236 42.4405 58.9827 35.0002 58.9827C27.5597 58.9827 21.6055 56.3236 17.5455 53.7036C15.5129 52.3919 13.9361 51.0782 12.8595 50.0843C12.3205 49.5866 11.9044 49.1666 11.6169 48.864C11.4731 48.7129 11.3613 48.5907 11.2821 48.5022L11.1878 48.3956L11.1591 48.3624L11.1495 48.3512L11.1458 48.3468L13.0049 46.7603C11.1429 48.3438 11.1458 48.3468 11.1458 48.3468C10.7702 47.9048 10.561 47.3406 10.561 46.7603Z" fill="url(#paint1_linear_470_511)"/>
<defs>
<linearGradient id="paint0_linear_470_511" x1="7.7706" y1="46.8492" x2="28.0497" y2="17.059" gradientUnits="userSpaceOnUse">
<stop stop-color="#D9B748" stop-opacity="0.22"/>
<stop offset="0.208438" stop-color="#D9B748" stop-opacity="0"/>
<stop offset="0.413142" stop-color="#D9B748" stop-opacity="0.95"/>
<stop offset="0.6728" stop-color="#D9B748" stop-opacity="0"/>
<stop offset="1" stop-color="#D9B748" stop-opacity="0"/>
</linearGradient>
<linearGradient id="paint1_linear_470_511" x1="15.5501" y1="60.3318" x2="24.9241" y2="41.8676" gradientUnits="userSpaceOnUse">
<stop stop-color="#D9B748" stop-opacity="0.22"/>
<stop offset="0.208438" stop-color="#D9B748" stop-opacity="0"/>
<stop offset="0.413142" stop-color="#D9B748" stop-opacity="0.95"/>
<stop offset="0.6728" stop-color="#D9B748" stop-opacity="0"/>
<stop offset="1" stop-color="#D9B748" stop-opacity="0"/>
</linearGradient>
</defs>
</svg>
